<svg width="1512" height="1210" viewBox="0 0 1512 1210" fill="none" xmlns="http://www.w3.org/2000/svg">
<g filter="url(#filter0_d_34_2)">
<path fill-rule="evenodd" clip-rule="evenodd" d="M1512 105.509L1449 81.1677C1386 59.869 1260 14.2289 1134 35.5276C1008 59.869 882 151.149 756 266.771C630 382.392 504 519.313 378 564.953C252 610.593 126 564.953 63 543.654L0 519.313V1210H63C126 1210 252 1210 378 1210C504 1210 630 1210 756 1210C882 1210 1008 1210 1134 1210C1260 1210 1386 1210 1449 1210H1512L1512 105.509Z" fill="#B641FF"/>
</g>
<defs>
<filter id="filter0_d_34_2" x="-30" y="0" width="1572" height="1240" filterUnits="userSpaceOnUse" color-interpolation-filters="sRGB">
<feFlood flood-opacity="0" result="BackgroundImageFix"/>
<feColorMatrix in="SourceAlpha" type="matrix" values="0 0 0 0 0 0 0 0 0 0 0 0 0 0 0 0 0 0 127 0" result="hardAlpha"/>
<feOffset/>
<feGaussianBlur stdDeviation="15"/>
<feComposite in2="hardAlpha" operator="out"/>
<feColorMatrix type="matrix" values="0 0 0 0 0 0 0 0 0 0 0 0 0 0 0 0 0 0 0.25 0"/>
<feBlend mode="darken" in2="BackgroundImageFix" result="effect1_dropShadow_34_2"/>
<feBlend mode="normal" in="SourceGraphic" in2="effect1_dropShadow_34_2" result="shape"/>
</filter>
</defs>
</svg>
