<svg width="75" height="75" viewBox="0 0 75 75" fill="none" xmlns="http://www.w3.org/2000/svg">
<path d="M56.25 9.375H18.75C13.4375 9.375 9.375 13.4375 9.375 18.75V56.25C9.375 61.5625 13.4375 65.625 18.75 65.625H56.25C61.5625 65.625 65.625 61.5625 65.625 56.25V18.75C65.625 13.4375 61.5625 9.375 56.25 9.375ZM37.5 28.125C42.8125 28.125 46.875 32.1875 46.875 37.5C46.875 42.8125 42.8125 46.875 37.5 46.875C32.1875 46.875 28.125 42.8125 28.125 37.5C28.125 32.1875 32.1875 28.125 37.5 28.125ZM49.375 21.875C49.375 19.6875 51.25 18.125 53.125 18.125C55 18.125 56.875 20 56.875 21.875C56.875 23.75 55.3125 25.625 53.125 25.625C50.9375 25.625 49.375 24.0625 49.375 21.875ZM56.25 59.375H18.75C16.875 59.375 15.625 58.125 15.625 56.25V37.5H21.875C21.875 46.25 28.75 53.125 37.5 53.125C46.25 53.125 53.125 46.25 53.125 37.5H59.375V56.25C59.375 58.125 58.125 59.375 56.25 59.375Z" fill="white"/>
</svg>
