<svg width="35" height="35" viewBox="0 0 35 35" fill="none" xmlns="http://www.w3.org/2000/svg">
<path d="M17.3037 18.8847C19.6638 18.8847 21.577 16.9714 21.577 14.6113C21.577 12.2511 19.6638 10.3379 17.3037 10.3379C14.9435 10.3379 13.0303 12.2511 13.0303 14.6113C13.0303 16.9714 14.9435 18.8847 17.3037 18.8847Z" stroke="white" stroke-width="2.84892" stroke-linecap="round" stroke-linejoin="round"/>
<path d="M17.3029 3.21558C14.2806 3.21558 11.3821 4.41619 9.24495 6.55329C7.10784 8.6904 5.90723 11.5889 5.90723 14.6113C5.90723 17.3063 6.47986 19.0698 8.04392 21.0213L17.3029 31.7048L26.5619 21.0213C28.126 19.0698 28.6986 17.3063 28.6986 14.6113C28.6986 11.5889 27.498 8.6904 25.3609 6.55329C23.2238 4.41619 20.3252 3.21558 17.3029 3.21558V3.21558Z" stroke="white" stroke-width="2.84892" stroke-linecap="round" stroke-linejoin="round"/>
</svg>
