<svg width="36" height="36" viewBox="0 0 36 36" fill="none" xmlns="http://www.w3.org/2000/svg">
<path d="M32.5824 5.93115H3.64802C3.03247 5.93115 2.53516 6.42846 2.53516 7.04401V29.3012C2.53516 29.9168 3.03247 30.4141 3.64802 30.4141H32.5824C33.1979 30.4141 33.6952 29.9168 33.6952 29.3012V7.04401C33.6952 6.42846 33.1979 5.93115 32.5824 5.93115ZM29.7724 9.71835L18.8003 18.2561C18.529 18.4682 18.15 18.4682 17.8787 18.2561L6.90313 9.71835C6.86176 9.68642 6.83141 9.64235 6.81634 9.5923C6.80128 9.54226 6.80225 9.48876 6.81912 9.43929C6.83599 9.38983 6.86792 9.34688 6.91043 9.31648C6.95293 9.28607 7.00389 9.26972 7.05615 9.26973H29.6194C29.6716 9.26972 29.7226 9.28607 29.7651 9.31648C29.8076 9.34688 29.8395 9.38983 29.8564 9.43929C29.8733 9.48876 29.8742 9.54226 29.8592 9.5923C29.8441 9.64235 29.8138 9.68642 29.7724 9.71835Z" fill="white"/>
</svg>
