<svg width="47" height="46" viewBox="0 0 47 46" fill="none" xmlns="http://www.w3.org/2000/svg">
<path d="M28.7269 31.3736L31.7934 28.3058C32.2064 27.8978 32.729 27.6184 33.2976 27.5017C33.8663 27.3851 34.4565 27.436 34.9968 27.6485L38.7341 29.1412C39.28 29.3629 39.7482 29.7413 40.0795 30.2288C40.4108 30.7162 40.5905 31.2909 40.5959 31.8803V38.7279C40.5927 39.1289 40.5085 39.5251 40.3482 39.8926C40.1879 40.2601 39.955 40.5914 39.6634 40.8665C39.3718 41.1416 39.0275 41.3548 38.6514 41.4933C38.2752 41.6318 37.8749 41.6927 37.4746 41.6724C11.2862 40.0426 6.00196 17.8564 5.00261 9.36531C4.95622 8.94834 4.9986 8.52626 5.12697 8.12686C5.25535 7.72745 5.4668 7.35977 5.74742 7.04798C6.02804 6.7362 6.37147 6.4874 6.75511 6.31793C7.13875 6.14846 7.55391 6.06218 7.97328 6.06475H14.5854C15.1755 6.0665 15.7515 6.2448 16.2394 6.57672C16.7273 6.90864 17.1048 7.379 17.3234 7.92731L18.8155 11.6661C19.0349 12.2044 19.0909 12.7955 18.9765 13.3654C18.862 13.9354 18.5823 14.459 18.1721 14.8708L15.1056 17.9385C15.1056 17.9385 16.8716 29.8945 28.7269 31.3736Z" fill="white"/>
</svg>
