<svg width="75" height="75" viewBox="0 0 75 75" fill="none" xmlns="http://www.w3.org/2000/svg">
<path d="M37.5 4.6875C19.3799 4.6875 4.6875 19.3799 4.6875 37.5C4.6875 55.6201 19.3799 70.3125 37.5 70.3125C55.6201 70.3125 70.3125 55.6201 70.3125 37.5C70.3125 19.3799 55.6201 4.6875 37.5 4.6875ZM53.269 29.4214C53.291 29.7656 53.291 30.1245 53.291 30.4761C53.291 41.228 45.1025 53.6133 30.1392 53.6133C25.5249 53.6133 21.2476 52.2729 17.644 49.9658C18.3032 50.0391 18.9331 50.0684 19.6069 50.0684C23.4155 50.0684 26.9165 48.7793 29.707 46.5967C26.1328 46.5234 23.1299 44.1797 22.1045 40.957C23.3569 41.1401 24.4849 41.1401 25.7739 40.8105C23.9335 40.4366 22.2794 39.4371 21.0924 37.9818C19.9055 36.5265 19.2589 34.7051 19.2627 32.8271V32.7246C20.3394 33.3325 21.6064 33.7061 22.9321 33.7573C21.8177 33.0146 20.9037 32.0084 20.2713 30.8279C19.6389 29.6473 19.3075 28.329 19.3066 26.9897C19.3066 25.4736 19.7021 24.0894 20.4126 22.8882C22.4553 25.4029 25.0044 27.4595 27.894 28.9246C30.7837 30.3896 33.9493 31.2301 37.1851 31.3916C36.0352 25.8618 40.166 21.3867 45.1318 21.3867C47.4756 21.3867 49.585 22.3682 51.0718 23.9502C52.9102 23.606 54.668 22.9175 56.2354 21.9946C55.6274 23.877 54.353 25.4663 52.6611 26.4697C54.3018 26.2939 55.8838 25.8398 57.3486 25.2026C56.2427 26.8286 54.8584 28.2715 53.269 29.4214Z" fill="white"/>
</svg>
